<svg width="24" height="24" viewBox="0 0 24 24" fill="none" xmlns="http://www.w3.org/2000/svg">
<path d="M10.0409 20.2509L20.1741 10.6423C21.9305 9.04093 21.9305 6.41459 20.2417 4.74911C18.5528 3.08363 15.7155 3.08363 14.0266 4.74911L13.9591 4.81317L12 6.60676L12.9458 7.50356L14.9049 5.64591C16.0533 4.55694 18.0124 4.55694 19.1608 5.64591C20.3092 6.73488 20.3768 8.59253 19.2283 9.6815C19.2283 9.6815 19.2283 9.68149 19.1608 9.74555L9.09515 19.29C7.94672 20.4431 5.98763 20.4431 4.8392 19.3541C3.62322 18.2651 3.62322 16.4075 4.77165 15.3185C4.77165 15.3185 4.77165 15.3185 4.8392 15.2544L9.83825 10.5142C10.5138 9.87367 11.5947 9.93772 12.2027 10.5142C12.8107 11.1548 12.8107 12.1157 12.2027 12.7562L7.5 17.5L8.44577 18.3968L13.216 13.589C14.3644 12.4359 14.2969 10.6423 13.0809 9.55338C11.9324 8.52847 10.1085 8.52847 8.89249 9.55338L3.82588 14.3577C2.06946 15.9591 2.06946 18.5854 3.75833 20.2509C5.4472 21.9164 8.28449 21.9164 10.0409 20.2509Z" fill="black" fill-opacity="0.4"/>
</svg>
