<svg width="14" height="14" viewBox="0 0 14 14" fill="none" xmlns="http://www.w3.org/2000/svg">
<path d="M12 0C13.1046 0 14 0.895431 14 2V12C14 13.1046 13.1046 14 12 14H2C0.895431 14 4.83199e-08 13.1046 0 12V2C0 0.895431 0.895431 4.83192e-08 2 0H12ZM10.3213 4.11719C10.1098 3.93972 9.79475 3.96732 9.61719 4.17871L5.78711 8.7373L4.37207 7.16504C4.18733 6.95984 3.87028 6.94322 3.66504 7.12793C3.45984 7.31267 3.44322 7.62972 3.62793 7.83496L5.42871 9.83496C5.52551 9.94225 5.66409 10.0025 5.80859 10C5.95327 9.99751 6.08955 9.93209 6.18262 9.82129L10.3828 4.82129C10.5603 4.60985 10.5327 4.29475 10.3213 4.11719Z" fill="#181818"/>
</svg>
