<svg width="24" height="24" viewBox="0 0 24 24" fill="none" xmlns="http://www.w3.org/2000/svg">
<path d="M6 17.7901V6.21088C6 5.88992 6.13474 5.58221 6.37307 5.35525C6.61141 5.1283 6.93456 5 7.27162 5H14.365L14.4887 5.01319C14.6106 5.03793 14.7226 5.09879 14.8073 5.18846L17.8474 8.40459C17.9456 8.50859 17.9997 8.64353 17.9998 8.7834V17.7901C17.9997 18.1109 17.8659 18.4188 17.6277 18.6457C17.3893 18.8725 17.0661 19 16.7291 19H7.27162C6.93472 19 6.61138 18.8724 6.37307 18.6457C6.13481 18.4188 6.00009 18.1109 6 17.7901ZM7.19146 17.7901C7.19155 17.8101 7.19936 17.8295 7.21423 17.8438C7.22927 17.8581 7.25034 17.8664 7.27162 17.8664H16.7291C16.7503 17.8664 16.7705 17.858 16.7855 17.8438C16.8005 17.8295 16.8092 17.8102 16.8093 17.7901V9.00013L14.1008 6.13455H7.27162C7.25035 6.13455 7.22927 6.1419 7.21423 6.15622C7.19918 6.17055 7.19146 6.19062 7.19146 6.21088V17.7901Z" fill="black"/>
<path d="M13.4312 5.56727C13.4312 5.25419 13.6981 5 14.0269 5C14.3557 5 14.6226 5.25419 14.6226 5.56727V8.21707H17.4044C17.733 8.21707 17.9999 8.47046 18.0001 8.7834C18.0001 9.09649 17.7331 9.35068 17.4044 9.35068H14.0269C13.6981 9.35068 13.4312 9.09649 13.4312 8.7834V5.56727Z" fill="black"/>
</svg>
