<svg width="80" height="36" viewBox="0 0 80 36" fill="none" xmlns="http://www.w3.org/2000/svg">
<path d="M56.7334 11.2904V5.09692H78.0001V11.2904H71.5911V31.0852H63.5559V11.2904H56.7334Z" fill="white"/>
<path d="M38.9541 5.09692H31.2842V11.2904L37.5596 17.828V18.5162L31.2842 25.0538V31.2473H38.9541V27.1183L42.7891 23.3334L46.2754 27.1183V31.2473H54.294V25.0538L48.0186 18.5162V17.828L54.294 11.2904V5.09692H46.2754V9.57002L42.7891 13.0109L38.9541 9.57002V5.09692Z" fill="white"/>
<path d="M18.3838 30.9032V25.0538L23.6133 21.9571L28.4942 25.0538V30.9032L23.6133 34L18.3838 30.9032Z" fill="white"/>
<path d="M7.22803 25.3978L12.4575 21.8193L17.687 25.0537V30.9031L12.4575 33.9999L7.22803 30.9031V25.3978Z" fill="white"/>
<path d="M18.3858 11.2903V5.09676L23.6153 2L28.8448 5.09676V11.2903L23.6153 14.387L18.3858 11.2903Z" fill="white"/>
<path d="M17.6885 11.2903V5.09676L12.459 2L7.22951 5.09676V11.2903L12.1104 14.387L17.6885 11.2903Z" fill="white"/>
<path d="M12.1104 15.0752L6.88087 11.9784L2 15.0752V21.2687L6.88087 24.7095L12.1104 21.2687V15.0752Z" fill="white"/>
</svg>
