<svg width="130" height="72" viewBox="0 0 130 72" fill="none" xmlns="http://www.w3.org/2000/svg">
<path d="M67.376 15.0324V7.67773H91.9999V15.0324H84.5791V38.5385H75.2755V15.0324H67.376Z" fill="white"/>
<path d="M46.7894 7.67773H37.9087V15.0324L45.1748 22.7958V23.6129L37.9087 31.3762V38.731H46.7894V33.8278L51.2298 29.3333L55.2665 33.8278V38.731H64.5509V31.3762L57.2849 23.6129V22.7958L64.5509 15.0324V7.67773H55.2665V12.9895L51.2298 17.0754L46.7894 12.9895V7.67773Z" fill="white"/>
<path d="M22.9729 38.3227V31.3766L29.028 27.6992L34.6793 31.3766V38.3227L29.028 42L22.9729 38.3227Z" fill="white"/>
<path d="M10.0552 31.7846L16.1102 27.5352L22.1653 31.376V38.3221L16.1102 41.9994L10.0552 38.3221V31.7846Z" fill="white"/>
<path d="M22.9725 15.0321V7.67736L29.0276 4L35.0826 7.67736V15.0321L29.0276 18.7094L22.9725 15.0321Z" fill="white"/>
<path d="M22.1652 15.0321V7.67736L16.1101 4L10.0551 7.67736V15.0321L15.7064 18.7094L22.1652 15.0321Z" fill="white"/>
<path d="M15.7064 19.5266L9.65138 15.8493L4 19.5266V26.8813L9.65138 30.9673L15.7064 26.8813V19.5266Z" fill="white"/>
<path d="M9.2696 54.0523H8.20024C8.16974 53.8772 8.11351 53.7222 8.03155 53.587C7.94958 53.45 7.8476 53.334 7.72561 53.2388C7.60361 53.1437 7.46446 53.0723 7.30815 53.0247C7.15375 52.9753 6.98696 52.9505 6.80779 52.9505C6.48946 52.9505 6.20734 53.0304 5.96145 53.1903C5.71555 53.3482 5.52303 53.5804 5.38388 53.8868C5.24473 54.1912 5.17515 54.5632 5.17515 55.0028C5.17515 55.45 5.24473 55.8268 5.38388 56.1332C5.52493 56.4376 5.71746 56.6679 5.96145 56.8239C6.20734 56.9781 6.4885 57.0551 6.80493 57.0551C6.98029 57.0551 7.14422 57.0323 7.29672 56.9866C7.45112 56.9391 7.58931 56.8696 7.71131 56.7783C7.83521 56.6869 7.9391 56.5746 8.02297 56.4414C8.10874 56.3082 8.16784 56.156 8.20024 55.9847L9.2696 55.9904C9.22957 56.2683 9.14284 56.529 9.00941 56.7726C8.87788 57.0161 8.70538 57.2312 8.49188 57.4176C8.27839 57.6022 8.02869 57.7469 7.74276 57.8515C7.45684 57.9543 7.13946 58.0057 6.79063 58.0057C6.27596 58.0057 5.81658 57.8867 5.41247 57.6489C5.00836 57.411 4.69003 57.0675 4.45748 56.6184C4.22493 56.1693 4.10865 55.6308 4.10865 55.0028C4.10865 54.373 4.22588 53.8344 4.46034 53.3872C4.6948 52.9381 5.01408 52.5947 5.41819 52.3568C5.8223 52.1189 6.27978 52 6.79063 52C7.11658 52 7.41967 52.0457 7.69987 52.137C7.98008 52.2284 8.22979 52.3625 8.449 52.5395C8.6682 52.7146 8.84834 52.9296 8.98939 53.1846C9.13236 53.4377 9.22576 53.7269 9.2696 54.0523Z" fill="white"/>
<path d="M15.4735 55.0028C15.4735 55.6327 15.3553 56.1722 15.1189 56.6213C14.8845 57.0685 14.5642 57.411 14.1582 57.6489C13.7541 57.8867 13.2957 58.0057 12.7829 58.0057C12.2701 58.0057 11.8108 57.8867 11.4047 57.6489C11.0006 57.4091 10.6804 57.0656 10.444 56.6184C10.2096 56.1693 10.0924 55.6308 10.0924 55.0028C10.0924 54.373 10.2096 53.8344 10.444 53.3872C10.6804 52.9381 11.0006 52.5947 11.4047 52.3568C11.8108 52.1189 12.2701 52 12.7829 52C13.2957 52 13.7541 52.1189 14.1582 52.3568C14.5642 52.5947 14.8845 52.9381 15.1189 53.3872C15.3553 53.8344 15.4735 54.373 15.4735 55.0028ZM14.407 55.0028C14.407 54.5594 14.3374 54.1855 14.1982 53.881C14.061 53.5747 13.8704 53.3435 13.6264 53.1874C13.3824 53.0295 13.1012 52.9505 12.7829 52.9505C12.4646 52.9505 12.1834 53.0295 11.9394 53.1874C11.6954 53.3435 11.5039 53.5747 11.3647 53.881C11.2275 54.1855 11.1589 54.5594 11.1589 55.0028C11.1589 55.4462 11.2275 55.8211 11.3647 56.1275C11.5039 56.4319 11.6954 56.6631 11.9394 56.8211C12.1834 56.9771 12.4646 57.0551 12.7829 57.0551C13.1012 57.0551 13.3824 56.9771 13.6264 56.8211C13.8704 56.6631 14.061 56.4319 14.1982 56.1275C14.3374 55.8211 14.407 55.4462 14.407 55.0028Z" fill="white"/>
<path d="M16.4763 57.9257V52.0799H18.718C19.1412 52.0799 19.4929 52.1465 19.7731 52.2797C20.0552 52.411 20.2658 52.5909 20.405 52.8192C20.546 53.0476 20.6165 53.3064 20.6165 53.5956C20.6165 53.8335 20.5708 54.0371 20.4793 54.2064C20.3878 54.3739 20.2649 54.51 20.1105 54.6146C19.9561 54.7193 19.7835 54.7945 19.5929 54.8401V54.8972C19.8007 54.9086 19.9999 54.9724 20.1905 55.0885C20.383 55.2026 20.5403 55.3644 20.6623 55.5737C20.7843 55.783 20.8453 56.0361 20.8453 56.333C20.8453 56.6355 20.7719 56.9077 20.6251 57.1493C20.4783 57.3891 20.2572 57.5784 19.9618 57.7174C19.6663 57.8563 19.2946 57.9257 18.8467 57.9257H16.4763ZM17.5371 57.0409H18.678C19.063 57.0409 19.3404 56.9676 19.51 56.8211C19.6816 56.6726 19.7673 56.4824 19.7673 56.2502C19.7673 56.077 19.7245 55.921 19.6387 55.7821C19.5529 55.6413 19.4309 55.5309 19.2727 55.451C19.1145 55.3691 18.9258 55.3282 18.7066 55.3282H17.5371V57.0409ZM17.5371 54.5661H18.5865C18.7695 54.5661 18.9343 54.5328 19.0811 54.4662C19.2279 54.3977 19.3432 54.3016 19.4271 54.1779C19.5129 54.0523 19.5558 53.9039 19.5558 53.7326C19.5558 53.5062 19.4757 53.3197 19.3156 53.1732C19.1574 53.0266 18.922 52.9534 18.6093 52.9534H17.5371V54.5661Z" fill="white"/>
<path d="M21.7681 57.9257V52.0799H23.964C24.4139 52.0799 24.7913 52.1637 25.0963 52.3311C25.4032 52.4986 25.6348 52.7288 25.7911 53.0219C25.9493 53.313 26.0284 53.6441 26.0284 54.0152C26.0284 54.3901 25.9493 54.7231 25.7911 55.0142C25.6329 55.3054 25.3994 55.5347 25.0906 55.7022C24.7818 55.8677 24.4015 55.9505 23.9497 55.9505H22.4944V55.0799H23.8068C24.0698 55.0799 24.2852 55.0342 24.4529 54.9429C24.6207 54.8515 24.7446 54.726 24.8246 54.5661C24.9066 54.4063 24.9476 54.2226 24.9476 54.0152C24.9476 53.8078 24.9066 53.6251 24.8246 53.4672C24.7446 53.3092 24.6197 53.1865 24.4501 53.0989C24.2823 53.0095 24.066 52.9648 23.801 52.9648H22.8289V57.9257H21.7681Z" fill="white"/>
<path d="M26.9498 57.9257V52.0799H30.7583V52.9676H28.0106V54.5547H30.561V55.4424H28.0106V57.038H30.7812V57.9257H26.9498Z" fill="white"/>
<path d="M31.8405 52.0799H33.1386L34.8771 56.3159H34.9457L36.6841 52.0799H37.9822V57.9257H36.9643V53.9096H36.91L35.2917 57.9086H34.5311L32.9128 53.901H32.8584V57.9257H31.8405V52.0799Z" fill="white"/>
<path d="M39.1373 57.9257V52.0799H42.9459V52.9676H40.1981V54.5547H42.7486V55.4424H40.1981V57.038H42.9687V57.9257H39.1373Z" fill="white"/>
<path d="M44.0281 57.9257V52.0799H45.0889V54.5547H47.8023V52.0799H48.866V57.9257H47.8023V55.4424H45.0889V57.9257H44.0281Z" fill="white"/>
<path d="M50.0197 57.9257V52.0799H51.0804V54.5547H53.7939V52.0799H54.8575V57.9257H53.7939V55.4424H51.0804V57.9257H50.0197Z" fill="white"/>
<path d="M56.7289 54.3378H58.2157C58.6636 54.3378 59.0477 54.411 59.368 54.5575C59.6901 54.7022 59.937 54.9067 60.1085 55.1712C60.2801 55.4357 60.3659 55.7469 60.3659 56.1046C60.3659 56.4643 60.2801 56.7811 60.1085 57.0551C59.937 57.3273 59.6901 57.5404 59.368 57.6945C59.0477 57.8487 58.6636 57.9257 58.2157 57.9257H56.0227V52.0799H57.0863V57.058H58.2157C58.4521 57.058 58.6522 57.0133 58.8161 56.9238C58.9801 56.8344 59.104 56.7164 59.1878 56.5699C59.2736 56.4234 59.3165 56.2645 59.3165 56.0932C59.3165 55.8458 59.2212 55.6356 59.0306 55.4624C58.8419 55.2873 58.5702 55.1998 58.2157 55.1998H56.7289V54.3378ZM61.9356 52.0799V57.9257H60.8719V52.0799H61.9356Z" fill="white"/>
<path d="M63.0879 57.9257V52.0799H66.8964V52.9676H64.1487V54.5547H66.6991V55.4424H64.1487V57.038H66.9193V57.9257H63.0879Z" fill="white"/>
<path d="M70.8622 52.0799L72.1517 54.2207H72.1974L73.4927 52.0799H74.7021L72.898 55.0028L74.7307 57.9257H73.5013L72.1974 55.7992H72.1517L70.8479 57.9257H69.6241L71.4741 55.0028L69.647 52.0799H70.8622Z" fill="white"/>
<path d="M75.5349 52.0799H76.5871V56.0647H76.6414L79.3949 52.0799H80.347V57.9257H79.2862V53.9438H79.2376L76.4756 57.9257H75.5349V52.0799Z" fill="white"/>
<path d="M81.5029 52.0799H82.801L84.5394 56.3159H84.608L86.3465 52.0799H87.6445V57.9257H86.6267V53.9096H86.5723L84.954 57.9086H84.1934L82.5751 53.901H82.5208V57.9257H81.5029V52.0799Z" fill="white"/>
<path d="M88.7997 52.0799H89.8519V56.0647H89.9062L92.6597 52.0799H93.6118V57.9257H92.551V53.9438H92.5024L89.7404 57.9257H88.7997V52.0799Z" fill="white"/>
<path d="M94.9421 52.0799H95.98V53.9867C95.98 54.234 96.0229 54.43 96.1087 54.5747C96.1963 54.7193 96.326 54.823 96.4975 54.8858C96.6691 54.9486 96.8825 54.98 97.138 54.98C97.2523 54.98 97.3753 54.9762 97.5068 54.9686C97.6403 54.9591 97.7746 54.9467 97.91 54.9315C98.0453 54.9143 98.1749 54.8944 98.2988 54.8715C98.4227 54.8468 98.5333 54.8201 98.6305 54.7916V55.6536C98.5333 55.6841 98.4246 55.7117 98.3046 55.7364C98.1845 55.7611 98.0577 55.7821 97.9243 55.7992C97.7908 55.8163 97.6574 55.8297 97.524 55.8392C97.3905 55.8487 97.2619 55.8534 97.138 55.8534C96.69 55.8534 96.3012 55.7897 95.9714 55.6622C95.6435 55.5328 95.39 55.3311 95.2108 55.0571C95.0317 54.783 94.9421 54.4262 94.9421 53.9867V52.0799ZM98.4561 52.0799H99.4997V57.9257H98.4561V52.0799Z" fill="white"/>
<path d="M100.791 57.9257V52.0799H104.599V52.9676H101.851V54.5547H104.402V55.4424H101.851V57.038H104.622V57.9257H100.791Z" fill="white"/>
<path d="M110.694 54.0523H109.624C109.594 53.8772 109.538 53.7222 109.456 53.587C109.374 53.45 109.272 53.334 109.15 53.2388C109.028 53.1437 108.889 53.0723 108.732 53.0247C108.578 52.9753 108.411 52.9505 108.232 52.9505C107.914 52.9505 107.631 53.0304 107.386 53.1903C107.14 53.3482 106.947 53.5804 106.808 53.8868C106.669 54.1912 106.599 54.5632 106.599 55.0028C106.599 55.45 106.669 55.8268 106.808 56.1332C106.949 56.4376 107.142 56.6679 107.386 56.8239C107.631 56.9781 107.913 57.0551 108.229 57.0551C108.404 57.0551 108.568 57.0323 108.721 56.9866C108.875 56.9391 109.013 56.8696 109.135 56.7783C109.259 56.6869 109.363 56.5746 109.447 56.4414C109.533 56.3082 109.592 56.156 109.624 55.9847L110.694 55.9904C110.654 56.2683 110.567 56.529 110.433 56.7726C110.302 57.0161 110.129 57.2312 109.916 57.4176C109.702 57.6022 109.453 57.7469 109.167 57.8515C108.881 57.9543 108.564 58.0057 108.215 58.0057C107.7 58.0057 107.241 57.8867 106.837 57.6489C106.432 57.411 106.114 57.0675 105.882 56.6184C105.649 56.1693 105.533 55.6308 105.533 55.0028C105.533 54.373 105.65 53.8344 105.884 53.3872C106.119 52.9381 106.438 52.5947 106.842 52.3568C107.246 52.1189 107.704 52 108.215 52C108.541 52 108.844 52.0457 109.124 52.137C109.404 52.2284 109.654 52.3625 109.873 52.5395C110.092 52.7146 110.272 52.9296 110.413 53.1846C110.556 53.4377 110.65 53.7269 110.694 54.0523Z" fill="white"/>
<path d="M115.173 57.9257L113.246 55.371H112.726V57.9257H111.665V52.0799H112.726V54.4833H112.992L115.073 52.0799H116.38L114.067 54.7459L116.48 57.9257H115.173Z" fill="white"/>
<path d="M117.201 52.0799H118.253V56.0647H118.307L121.061 52.0799H122.013V57.9257H120.952V53.9438H120.903L118.141 57.9257H117.201V52.0799Z" fill="white"/>
<path d="M123.169 57.9257V52.0799H126.977V52.9676H124.229V54.5547H126.78V55.4424H124.229V57.038H127V57.9257H123.169Z" fill="white"/>
<path d="M4 62.962V62.0743H8.67202V62.962H6.86211V67.9201H5.80991V62.962H4Z" fill="white"/>
<path d="M9.57268 67.9201V62.0743H13.3812V62.962H10.6335V64.549H13.1839V65.4368H10.6335V67.0324H13.4041V67.9201H9.57268Z" fill="white"/>
<path d="M15.3498 62.0743L16.6393 64.2151H16.6851L17.9803 62.0743H19.1898L17.3856 64.9972L19.2184 67.9201H17.9889L16.6851 65.7936H16.6393L15.3355 67.9201H14.1117L15.9617 64.9972L14.1346 62.0743H15.3498Z" fill="white"/>
<path d="M20.0225 67.9201V62.0743H21.0833V64.549H23.7967V62.0743H24.8604V67.9201H23.7967V65.4368H21.0833V67.9201H20.0225Z" fill="white"/>
<path d="M31.2465 64.9972C31.2465 65.627 31.1283 66.1665 30.892 66.6156C30.6575 67.0628 30.3373 67.4053 29.9313 67.6432C29.5272 67.8811 29.0687 68 28.556 68C28.0432 68 27.5838 67.8811 27.1778 67.6432C26.7737 67.4034 26.4535 67.06 26.2171 66.6128C25.9826 66.1637 25.8654 65.6251 25.8654 64.9972C25.8654 64.3673 25.9826 63.8288 26.2171 63.3816C26.4535 62.9325 26.7737 62.589 27.1778 62.3511C27.5838 62.1133 28.0432 61.9943 28.556 61.9943C29.0687 61.9943 29.5272 62.1133 29.9313 62.3511C30.3373 62.589 30.6575 62.9325 30.892 63.3816C31.1283 63.8288 31.2465 64.3673 31.2465 64.9972ZM30.18 64.9972C30.18 64.5538 30.1104 64.1799 29.9713 63.8754C29.8341 63.569 29.6434 63.3378 29.3994 63.1818C29.1555 63.0238 28.8743 62.9449 28.556 62.9449C28.2376 62.9449 27.9565 63.0238 27.7125 63.1818C27.4685 63.3378 27.2769 63.569 27.1378 63.8754C27.0005 64.1799 26.9319 64.5538 26.9319 64.9972C26.9319 65.4406 27.0005 65.8154 27.1378 66.1218C27.2769 66.4263 27.4685 66.6575 27.7125 66.8154C27.9565 66.9715 28.2376 67.0495 28.556 67.0495C28.8743 67.0495 29.1555 66.9715 29.3994 66.8154C29.6434 66.6575 29.8341 66.4263 29.9713 66.1218C30.1104 65.8154 30.18 65.4406 30.18 64.9972Z" fill="white"/>
<path d="M31.8691 67.9201V67.0409L32.035 67.0324C32.2599 67.019 32.4381 66.9382 32.5696 66.7897C32.7031 66.6413 32.8012 66.4025 32.8641 66.0733C32.929 65.7441 32.9718 65.3026 32.9928 64.7488L33.09 62.0743H36.9271V67.9201H35.8892V62.9449H34.0793L33.9878 65.0771C33.9611 65.7165 33.8906 66.2464 33.7762 66.667C33.6638 67.0875 33.4789 67.4015 33.2216 67.6089C32.9661 67.8164 32.6106 67.9201 32.1551 67.9201H31.8691Z" fill="white"/>
<path d="M43.3161 64.9972C43.3161 65.627 43.198 66.1665 42.9616 66.6156C42.7271 67.0628 42.4069 67.4053 42.0009 67.6432C41.5968 67.8811 41.1383 68 40.6256 68C40.1128 68 39.6534 67.8811 39.2474 67.6432C38.8433 67.4034 38.5231 67.06 38.2867 66.6128C38.0523 66.1637 37.935 65.6251 37.935 64.9972C37.935 64.3673 38.0523 63.8288 38.2867 63.3816C38.5231 62.9325 38.8433 62.589 39.2474 62.3511C39.6534 62.1133 40.1128 61.9943 40.6256 61.9943C41.1383 61.9943 41.5968 62.1133 42.0009 62.3511C42.4069 62.589 42.7271 62.9325 42.9616 63.3816C43.198 63.8288 43.3161 64.3673 43.3161 64.9972ZM42.2496 64.9972C42.2496 64.5538 42.1801 64.1799 42.0409 63.8754C41.9037 63.569 41.7131 63.3378 41.4691 63.1818C41.2251 63.0238 40.9439 62.9449 40.6256 62.9449C40.3073 62.9449 40.0261 63.0238 39.7821 63.1818C39.5381 63.3378 39.3465 63.569 39.2074 63.8754C39.0702 64.1799 39.0015 64.5538 39.0015 64.9972C39.0015 65.4406 39.0702 65.8154 39.2074 66.1218C39.3465 66.4263 39.5381 66.6575 39.7821 66.8154C40.0261 66.9715 40.3073 67.0495 40.6256 67.0495C40.9439 67.0495 41.2251 66.9715 41.4691 66.8154C41.7131 66.6575 41.9037 66.4263 42.0409 66.1218C42.1801 65.8154 42.2496 65.4406 42.2496 64.9972Z" fill="white"/>
<path d="M48.0847 62.0743V62.962H45.3798V67.9201H44.319V62.0743H48.0847Z" fill="white"/>
<path d="M48.9817 62.0743H50.034V66.059H50.0883L52.8417 62.0743H53.7939V67.9201H52.7331V63.9382H52.6845L49.9224 67.9201H48.9817V62.0743Z" fill="white"/>
<path d="M54.9497 62.0743H56.0019V66.059H56.0563L58.8097 62.0743H59.7618V67.9201H58.7011V63.9382H58.6525L55.8904 67.9201H54.9497V62.0743Z" fill="white"/>
</svg>
