<svg width="24" height="24" viewBox="0 0 24 24" fill="none" xmlns="http://www.w3.org/2000/svg">
<path d="M16.6539 15.833L19.9746 19.1529L18.8775 20.25L15.5576 16.9293C14.3223 17.9195 12.7858 18.4581 11.2026 18.4559C7.35073 18.4559 4.22461 15.3298 4.22461 11.4779C4.22461 7.62612 7.35073 4.5 11.2026 4.5C15.0544 4.5 18.1805 7.62612 18.1805 11.4779C18.1828 13.0612 17.6441 14.5977 16.6539 15.833ZM15.0986 15.2577C16.0826 14.2458 16.6321 12.8894 16.6298 11.4779C16.6298 8.47898 14.2007 6.05065 11.2026 6.05065C8.20359 6.05065 5.77526 8.47898 5.77526 11.4779C5.77526 14.4761 8.20359 16.9052 11.2026 16.9052C12.614 16.9075 13.9704 16.3579 14.9823 15.374L15.0986 15.2577Z" fill="white"/>
</svg>
