<svg width="24" height="24" viewBox="0 0 24 24" fill="none" xmlns="http://www.w3.org/2000/svg">
<g clip-path="url(#clip0_1201_3776)">
<path d="M21.9368 5.06989C21.5188 4.65037 21.022 4.3175 20.475 4.09038C19.928 3.86325 19.3416 3.74634 18.7493 3.74634C18.1571 3.74634 17.5706 3.86325 17.0236 4.09038C16.4767 4.3175 15.9799 4.65037 15.5618 5.06989L16.6268 6.13489C16.9061 5.85566 17.2375 5.63417 17.6024 5.48306C17.9672 5.33194 18.3582 5.25416 18.7531 5.25416C19.148 5.25416 19.539 5.33194 19.9038 5.48306C20.2686 5.63417 20.6001 5.85566 20.8793 6.13489C21.1586 6.41411 21.38 6.7456 21.5312 7.11042C21.6823 7.47524 21.7601 7.86626 21.7601 8.26114C21.7601 8.65602 21.6823 9.04703 21.5312 9.41185C21.38 9.77668 21.1586 10.1082 20.8793 10.3874L14.8793 16.3874C14.3164 16.9513 13.5525 17.2685 12.7557 17.2692C11.9589 17.2699 11.1945 16.9541 10.6306 16.3911C10.0667 15.8282 9.74946 15.0643 9.74876 14.2675C9.74806 13.4707 10.0639 12.7063 10.6268 12.1424L11.6843 11.0774L10.6268 10.0124L9.56183 11.0774C9.14231 11.4955 8.80944 11.9922 8.58232 12.5392C8.3552 13.0862 8.23828 13.6726 8.23828 14.2649C8.23828 14.8572 8.3552 15.4436 8.58232 15.9906C8.80944 16.5376 9.14231 17.0343 9.56183 17.4524C10.4104 18.2901 11.5569 18.7568 12.7493 18.7499C13.3439 18.7523 13.933 18.6369 14.4827 18.4104C15.0324 18.1838 15.5317 17.8506 15.9518 17.4299L21.9518 11.4299C22.7925 10.5841 23.2632 9.43929 23.2604 8.24678C23.2576 7.05428 22.7815 5.91165 21.9368 5.06989Z" fill="black"/>
<path d="M3.14138 18.6149C2.86132 18.3361 2.63909 18.0048 2.48746 17.6399C2.33582 17.275 2.25776 16.8838 2.25776 16.4886C2.25776 16.0935 2.33582 15.7022 2.48746 15.3373C2.63909 14.9725 2.86132 14.6411 3.14138 14.3624L9.14138 8.36237C9.42013 8.08231 9.75147 7.86008 10.1164 7.70844C10.4812 7.55681 10.8725 7.47875 11.2676 7.47875C11.6628 7.47875 12.054 7.55681 12.4189 7.70844C12.7838 7.86008 13.1151 8.08231 13.3939 8.36237C13.6722 8.64332 13.8912 8.97727 14.0381 9.34443C14.185 9.71159 14.2566 10.1045 14.2489 10.4999C14.2512 10.8965 14.1748 11.2896 14.0242 11.6565C13.8736 12.0234 13.6517 12.3568 13.3714 12.6374L11.7814 14.2499L12.8464 15.3149L14.4364 13.7249C15.2828 12.8785 15.7582 11.7306 15.7582 10.5336C15.7582 9.33667 15.2828 8.18874 14.4364 7.34237C13.59 6.49599 12.4421 6.02051 11.2451 6.02051C10.0482 6.02051 8.90025 6.49599 8.05388 7.34237L2.05388 13.3424C1.63323 13.7606 1.29941 14.2578 1.07162 14.8055C0.84383 15.3532 0.726563 15.9405 0.726562 16.5336C0.726563 17.1268 0.84383 17.7141 1.07162 18.2618C1.29941 18.8094 1.63323 19.3067 2.05388 19.7249C2.90799 20.5562 4.05705 21.0148 5.24888 20.9999C6.45121 21.001 7.60517 20.5265 8.45888 19.6799L7.39388 18.6149C7.11512 18.8949 6.78379 19.1172 6.4189 19.2688C6.05402 19.4204 5.66277 19.4985 5.26763 19.4985C4.87249 19.4985 4.48124 19.4204 4.11635 19.2688C3.75147 19.1172 3.42013 18.8949 3.14138 18.6149Z" fill="black"/>
</g>
<defs>
<clipPath id="clip0_1201_3776">
<rect width="24" height="24" fill="white"/>
</clipPath>
</defs>
</svg>
