<svg width="24" height="24" fill="none" xmlns="http://www.w3.org/2000/svg"><path d="M10.04 20.25l10.134-9.608c1.756-1.601 1.756-4.227.068-5.893-1.69-1.665-4.527-1.665-6.215 0l-.068.064L12 6.607l.946.897 1.959-1.858c1.148-1.09 3.107-1.09 4.256 0 1.148 1.089 1.216 2.947.067 4.035l-.067.065L9.095 19.29c-1.148 1.153-3.107 1.153-4.256.064a2.74 2.74 0 01-.067-4.035l.067-.065 5-4.74c.675-.64 1.756-.576 2.364 0 .608.64.608 1.602 0 2.242L7.5 17.5l.946.897 4.77-4.808c1.148-1.153 1.08-2.947-.135-4.036-1.149-1.025-2.973-1.025-4.189 0l-5.066 4.805c-1.757 1.601-1.757 4.227-.068 5.893 1.69 1.665 4.526 1.665 6.283 0z" fill="#000" fill-opacity=".4"/></svg>