<svg width="24" height="24" fill="none" xmlns="http://www.w3.org/2000/svg"><path d="M6 17.79V6.21c0-.32.135-.628.373-.855.238-.227.562-.355.899-.355h7.093l.124.013a.603.603 0 01.318.175l3.04 3.217a.552.552 0 01.153.378v9.007c0 .32-.134.629-.372.856a1.305 1.305 0 01-.899.354H7.272a1.31 1.31 0 01-.899-.354A1.183 1.183 0 016 17.79zm1.191 0c0 .02.008.04.023.054a.084.084 0 00.058.022h9.457a.082.082 0 00.056-.022.075.075 0 00.024-.054V9l-2.708-2.865H7.27a.083.083 0 00-.057.021.075.075 0 00-.023.055v11.58z" fill="#000"/><path d="M13.431 5.567c0-.313.267-.567.596-.567.329 0 .596.254.596.567v2.65h2.781c.329 0 .596.253.596.566a.583.583 0 01-.596.568h-3.377a.583.583 0 01-.596-.568V5.567z" fill="#000"/></svg>