<svg width="130" height="72" fill="none" xmlns="http://www.w3.org/2000/svg"><path d="M67.376 15.032V7.678H92v7.354h-7.42v23.506h-9.305V15.032h-7.899zM46.79 7.678h-8.881v7.354l7.266 7.764v.817l-7.266 7.763v7.355h8.88v-4.903l4.44-4.495 4.038 4.495v4.903h9.284v-7.355l-7.266-7.763v-.817l7.266-7.764V7.678h-9.285v5.311l-4.036 4.086-4.44-4.085V7.677zM22.973 38.323v-6.946l6.055-3.678 5.651 3.678v6.946L29.028 42l-6.055-3.677zm-12.918-6.538l6.055-4.25 6.055 3.841v6.946L16.11 42l-6.055-3.677v-6.537zm12.918-16.753V7.677L29.027 4l6.055 3.677v7.355l-6.055 3.677-6.055-3.677zm-.808 0V7.677L16.11 4l-6.055 3.677v7.355l5.651 3.677 6.46-3.677zm-6.459 4.495l-6.055-3.678L4 19.527v7.354l5.651 4.086 6.055-4.086v-7.354zM9.27 54.052H8.2a1.328 1.328 0 00-.168-.465 1.253 1.253 0 00-.724-.562 1.633 1.633 0 00-.5-.075c-.319 0-.6.08-.847.24-.245.158-.438.39-.577.697-.14.304-.209.676-.209 1.116 0 .447.07.824.209 1.13.14.305.333.535.577.69.246.155.527.232.844.232.175 0 .34-.023.492-.068.154-.048.292-.117.414-.209a1.27 1.27 0 00.489-.794l1.07.006c-.04.278-.127.539-.26.783a2.306 2.306 0 01-1.267 1.078 2.798 2.798 0 01-.952.155c-.515 0-.974-.12-1.379-.357a2.492 2.492 0 01-.955-1.03c-.232-.45-.348-.988-.348-1.616 0-.63.117-1.169.351-1.616a2.51 2.51 0 01.958-1.03A2.654 2.654 0 016.791 52c.326 0 .629.046.909.137.28.091.53.225.749.402.22.176.4.39.54.646.143.253.237.542.28.867zm6.203.951c0 .63-.118 1.17-.354 1.618a2.52 2.52 0 01-.96 1.028 2.66 2.66 0 01-1.376.357c-.513 0-.972-.12-1.378-.357a2.554 2.554 0 01-.961-1.03c-.234-.45-.352-.988-.352-1.616 0-.63.118-1.169.352-1.616a2.53 2.53 0 01.96-1.03 2.675 2.675 0 011.38-.357c.513 0 .971.119 1.375.357a2.5 2.5 0 01.96 1.03c.237.447.355.986.355 1.616zm-1.066 0c0-.444-.07-.818-.209-1.122a1.545 1.545 0 00-.572-.694 1.518 1.518 0 00-.843-.236c-.318 0-.6.078-.844.236a1.563 1.563 0 00-.574.694c-.138.304-.206.678-.206 1.122 0 .443.068.818.206 1.124.139.305.33.536.574.694.244.156.526.234.844.234.318 0 .6-.078.843-.234.244-.158.435-.39.572-.694.14-.306.209-.68.209-1.124zm2.069 2.923V52.08h2.242c.423 0 .775.067 1.055.2a1.4 1.4 0 01.632.54c.141.228.211.486.211.776 0 .238-.045.441-.137.61a1.152 1.152 0 01-.369.409 1.56 1.56 0 01-.517.225v.057c.208.012.407.075.598.192.192.114.35.275.471.485.122.209.183.462.183.759 0 .303-.073.575-.22.816-.147.24-.368.43-.663.568-.296.14-.667.209-1.115.209h-2.37zm1.061-.885h1.141c.385 0 .662-.073.832-.22a.72.72 0 00.257-.57.872.872 0 00-.494-.8 1.217 1.217 0 00-.566-.123h-1.17v1.713zm0-2.475h1.05c.183 0 .347-.033.494-.1a.833.833 0 00.346-.288.77.77 0 00.129-.445.725.725 0 00-.24-.56c-.159-.146-.394-.22-.707-.22h-1.072v1.613zm4.231 3.36V52.08h2.196c.45 0 .827.084 1.132.251.307.168.539.398.695.69.158.292.237.623.237.994 0 .375-.079.708-.237 1-.158.29-.392.52-.7.687-.31.166-.69.248-1.141.248h-1.456v-.87h1.313c.263 0 .478-.046.646-.137a.865.865 0 00.372-.377 1.19 1.19 0 00.123-.55c0-.208-.041-.39-.123-.549a.835.835 0 00-.375-.368c-.168-.09-.384-.134-.649-.134h-.972v4.96h-1.06zm5.182 0V52.08h3.808v.888h-2.747v1.587h2.55v.887h-2.55v1.596h2.77v.888H26.95zm4.89-5.846h1.299l1.738 4.236h.069l1.738-4.236h1.298v5.846h-1.018V53.91h-.054l-1.618 3.999h-.76l-1.62-4.008h-.054v4.025h-1.017V52.08zm7.297 5.846V52.08h3.809v.888h-2.748v1.587h2.55v.887h-2.55v1.596h2.77v.888h-3.83zm4.891 0V52.08h1.06v2.475h2.714V52.08h1.064v5.846h-1.064v-2.484H45.09v2.484h-1.06zm5.992 0V52.08h1.06v2.475h2.714V52.08h1.064v5.846h-1.064v-2.484H51.08v2.484h-1.06zm6.709-3.588h1.487c.448 0 .832.073 1.152.22.322.144.569.349.74.613.172.265.258.576.258.934 0 .36-.086.676-.258.95a1.733 1.733 0 01-.74.64c-.32.154-.704.23-1.152.23h-2.193V52.08h1.063v4.978h1.13c.236 0 .436-.045.6-.134a.926.926 0 00.5-.83.821.821 0 00-.285-.632c-.19-.175-.46-.262-.815-.262h-1.487v-.862zm5.207-2.258v5.846h-1.064V52.08h1.064zm1.152 5.846V52.08h3.808v.888H64.15v1.587h2.55v.887h-2.55v1.596h2.77v.888h-3.831zm7.774-5.846l1.29 2.14h.045l1.296-2.14h1.21l-1.805 2.923 1.833 2.923H73.5l-1.304-2.127h-.045l-1.304 2.127h-1.224l1.85-2.923-1.827-2.923h1.215zm4.673 0h1.052v3.985h.054l2.754-3.985h.952v5.846h-1.06v-3.982h-.05l-2.761 3.982h-.941V52.08zm5.968 0H82.8l1.738 4.236h.069l1.739-4.236h1.297v5.846h-1.017V53.91h-.055l-1.618 3.999h-.76L82.574 53.9h-.054v4.025h-1.018V52.08zm7.297 0h1.052v3.985h.054l2.754-3.985h.952v5.846H92.55v-3.982h-.049l-2.762 3.982h-.94V52.08zm6.142 0h1.038v1.907c0 .247.043.443.129.588a.732.732 0 00.389.31c.171.064.384.095.64.095a6.417 6.417 0 001.16-.108 4.09 4.09 0 00.332-.08v.862a3.35 3.35 0 01-.325.082c-.12.025-.247.046-.38.063-.134.017-.268.03-.401.04a5.44 5.44 0 01-.386.014c-.448 0-.837-.063-1.167-.19a1.569 1.569 0 01-.76-.606c-.18-.274-.269-.63-.269-1.07V52.08zm3.514 0H99.5v5.846h-1.044V52.08zm2.335 5.846V52.08h3.808v.888h-2.748v1.587h2.551v.887h-2.551v1.596h2.771v.888h-3.831zm9.903-3.874h-1.07a1.317 1.317 0 00-.168-.465 1.253 1.253 0 00-.724-.562 1.63 1.63 0 00-.5-.075c-.318 0-.601.08-.846.24-.246.158-.439.39-.578.697-.139.304-.209.676-.209 1.116 0 .447.07.824.209 1.13.141.305.334.535.578.69.245.155.527.232.843.232.175 0 .339-.023.492-.068.154-.048.292-.117.414-.209a1.258 1.258 0 00.489-.794l1.07.006c-.04.278-.127.539-.261.783a2.303 2.303 0 01-1.266 1.078 2.797 2.797 0 01-.952.155c-.515 0-.974-.12-1.378-.357a2.483 2.483 0 01-.955-1.03c-.233-.45-.349-.988-.349-1.616 0-.63.117-1.169.351-1.616.235-.449.554-.792.958-1.03a2.655 2.655 0 011.373-.357c.326 0 .629.046.909.137.28.091.53.225.749.402.219.176.399.39.54.646a2.4 2.4 0 01.281.867zm4.479 3.874l-1.927-2.555h-.52v2.555h-1.061V52.08h1.061v2.403h.266l2.081-2.403h1.307l-2.313 2.666 2.413 3.18h-1.307zm2.028-5.846h1.052v3.985h.054l2.754-3.985h.952v5.846h-1.061v-3.982h-.049l-2.762 3.982h-.94V52.08zm5.968 5.846V52.08h3.808v.888h-2.748v1.587h2.551v.887h-2.551v1.596H127v.888h-3.831zM4 62.962v-.888h4.672v.888h-1.81v4.958H5.81v-4.958H4zm5.573 4.958v-5.846h3.808v.888h-2.748v1.587h2.55v.888h-2.55v1.595h2.771v.888H9.573zm5.777-5.846l1.29 2.141h.045l1.295-2.14h1.21l-1.804 2.922 1.832 2.923h-1.23l-1.303-2.126h-.046l-1.303 2.126h-1.224l1.85-2.923-1.827-2.923h1.215zm4.673 5.846v-5.846h1.06v2.475h2.714v-2.475h1.063v5.846h-1.063v-2.483h-2.714v2.483h-1.06zm11.224-2.923c0 .63-.119 1.17-.355 1.619-.235.447-.555.79-.96 1.027a2.66 2.66 0 01-1.376.357c-.513 0-.972-.119-1.378-.357a2.554 2.554 0 01-.96-1.03c-.235-.45-.353-.988-.353-1.616 0-.63.118-1.168.352-1.615a2.53 2.53 0 01.96-1.03 2.676 2.676 0 011.379-.358c.513 0 .971.12 1.375.357.406.238.726.581.961 1.03.236.448.355.986.355 1.616zm-1.067 0c0-.443-.07-.817-.209-1.122a1.544 1.544 0 00-.572-.693 1.517 1.517 0 00-.843-.237c-.318 0-.6.079-.844.237a1.561 1.561 0 00-.574.693c-.138.305-.206.679-.206 1.122 0 .444.069.818.206 1.125.139.304.33.535.574.693.244.157.526.234.844.234.318 0 .6-.078.843-.234a1.56 1.56 0 00.572-.693c.14-.307.209-.681.209-1.125zm1.69 2.923v-.88l.165-.008a.74.74 0 00.535-.242c.133-.149.231-.388.294-.717.065-.329.108-.77.129-1.324l.097-2.675h3.837v5.846H35.89v-4.975h-1.81l-.091 2.132c-.027.64-.097 1.17-.212 1.59-.112.42-.297.734-.554.942-.256.207-.611.311-1.067.311h-.286zm11.446-2.923c0 .63-.118 1.17-.354 1.619-.235.447-.555.79-.961 1.027a2.66 2.66 0 01-1.375.357c-.513 0-.973-.119-1.379-.357a2.554 2.554 0 01-.96-1.03c-.235-.45-.352-.988-.352-1.616 0-.63.117-1.168.352-1.615a2.53 2.53 0 01.96-1.03 2.676 2.676 0 011.379-.358c.512 0 .97.12 1.375.357a2.5 2.5 0 01.96 1.03c.237.448.355.986.355 1.616zm-1.066 0c0-.443-.07-.817-.21-1.122a1.544 1.544 0 00-.57-.693 1.517 1.517 0 00-.844-.237c-.319 0-.6.079-.844.237a1.561 1.561 0 00-.575.693c-.137.305-.206.679-.206 1.122 0 .444.07.818.206 1.125.14.304.331.535.575.693.244.157.525.234.844.234.318 0 .6-.078.843-.234a1.56 1.56 0 00.572-.693c.14-.307.209-.681.209-1.125zm5.835-2.923v.888H45.38v4.958h-1.061v-5.846h3.766zm.897 0h1.052v3.985h.054l2.754-3.985h.952v5.846h-1.06v-3.982h-.05l-2.762 3.982h-.94v-5.846zm5.968 0h1.052v3.985h.054l2.754-3.985h.952v5.846h-1.06v-3.982h-.05L55.89 67.92h-.94v-5.846z" fill="#fff"/></svg>