<svg width="80" height="36" fill="none" xmlns="http://www.w3.org/2000/svg"><path d="M56.733 11.29V5.097H78v6.193h-6.409v19.795h-8.035V11.29h-6.823zM38.954 5.097h-7.67v6.193l6.276 6.538v.688l-6.276 6.538v6.193h7.67v-4.129l3.835-3.785 3.486 3.785v4.13h8.019v-6.194l-6.275-6.538v-.688l6.275-6.538V5.097h-8.019V9.57l-3.486 3.44-3.835-3.44V5.097zm-20.57 25.806v-5.85l5.23-3.096 4.88 3.097v5.85L23.614 34l-5.23-3.097zM7.228 25.398l5.23-3.579 5.229 3.235v5.85L12.457 34l-5.229-3.097v-5.505zM18.386 11.29V5.097L23.616 2l5.229 3.097v6.193l-5.23 3.097-5.23-3.097zm-.697 0V5.097L12.459 2l-5.23 3.097v6.193l4.881 3.097 5.579-3.097zm-5.579 3.785l-5.23-3.097L2 15.075v6.194l4.88 3.44 5.23-3.44v-6.194z" fill="#fff"/></svg>