<svg width="24" height="24" fill="none" xmlns="http://www.w3.org/2000/svg"><g clip-path="url(#clip0_1201_3776)" fill="#000"><path d="M21.937 5.07a4.499 4.499 0 00-6.375 0l1.065 1.065a3.007 3.007 0 014.252 4.252l-6 6a3.004 3.004 0 01-4.252-4.245l1.057-1.065-1.057-1.065-1.065 1.065a4.5 4.5 0 000 6.375 4.5 4.5 0 003.187 1.298 4.502 4.502 0 003.203-1.32l6-6a4.5 4.5 0 00-.015-6.36z"/><path d="M3.141 18.615a3 3 0 010-4.253l6-6a3 3 0 014.253 0 2.955 2.955 0 01.855 2.138 3 3 0 01-.878 2.137l-1.59 1.613 1.065 1.065 1.59-1.59a4.513 4.513 0 00-6.382-6.383l-6 6a4.5 4.5 0 000 6.383A4.5 4.5 0 005.249 21a4.553 4.553 0 003.21-1.32l-1.065-1.065a3 3 0 01-4.253 0z"/></g><defs><clipPath id="clip0_1201_3776"><path fill="#fff" d="M0 0h24v24H0z"/></clipPath></defs></svg>