<svg width="442" height="400" fill="none" xmlns="http://www.w3.org/2000/svg"><path d="M289.191 476.259V348.302l116.884-67.741 109.09 67.741v127.957L406.075 544l-116.884-67.741zM39.848 355.828l116.883-78.279 116.883 70.752v127.957l-116.883 67.741-116.883-67.741v-120.43zM289.234 47.225V-88.258L406.117-156 523-88.258V47.225l-116.883 67.742-116.883-67.742zm-15.585 0V-88.258L156.766-156 39.883-88.258V47.225l109.091 67.742 124.675-67.742zM148.974 130.02L32.091 62.278-77 130.02v135.483l109.09 75.269 116.884-75.269V130.02z" fill="#ECEEF1" fill-opacity=".5"/></svg>