<svg width="442" height="400" viewBox="0 0 442 400" fill="none" xmlns="http://www.w3.org/2000/svg">
<path d="M289.191 476.259V348.302L406.075 280.561L515.165 348.302V476.259L406.075 544L289.191 476.259Z" fill="#ECEEF1" fill-opacity="0.5"/>
<path d="M39.8477 355.828L156.731 277.549L273.614 348.301V476.258L156.731 543.999L39.8477 476.258V355.828Z" fill="#ECEEF1" fill-opacity="0.5"/>
<path d="M289.234 47.2249V-88.2584L406.117 -156L523 -88.2584V47.2249L406.117 114.967L289.234 47.2249Z" fill="#ECEEF1" fill-opacity="0.5"/>
<path d="M273.649 47.2249V-88.2584L156.766 -156L39.8831 -88.2584V47.2249L148.974 114.967L273.649 47.2249Z" fill="#ECEEF1" fill-opacity="0.5"/>
<path d="M148.974 130.02L32.0909 62.2785L-77 130.02V265.503L32.0909 340.772L148.974 265.503V130.02Z" fill="#ECEEF1" fill-opacity="0.5"/>
</svg>
